<?xml version="1.0" standalone="no"?>
<!DOCTYPE svg PUBLIC "-//W3C//DTD SVG 20010904//EN"
 "http://www.w3.org/TR/2001/REC-SVG-20010904/DTD/svg10.dtd">
<svg version="1.0" xmlns="http://www.w3.org/2000/svg"
 width="260.000000pt" height="260.000000pt" viewBox="0 0 260.000000 260.000000"
 preserveAspectRatio="xMidYMid meet">
<metadata>
Created by potrace 1.11, written by Peter Selinger 2001-2013
</metadata>
<g transform="translate(0.000000,260.000000) scale(0.100000,-0.100000)"
fill="#000000" stroke="none">
<path d="M0 1300 l0 -1300 1300 0 1300 0 0 1300 0 1300 -1300 0 -1300 0 0
-1300z m640 1075 c7 -8 53 -283 104 -610 50 -327 93 -595 96 -595 3 0 43 264
88 588 46 323 87 597 92 610 9 22 11 22 215 22 l205 0 0 -23 c0 -13 -15 -38
-36 -58 -19 -18 -44 -48 -55 -65 -19 -31 -19 -55 -17 -951 l3 -919 53 -61 c85
-97 85 -97 -158 -101 -216 -3 -250 0 -250 22 0 7 23 42 50 76 l50 63 -1 646
c0 355 -2 642 -4 636 -2 -5 -47 -327 -101 -715 -53 -388 -102 -711 -107 -717
-12 -16 -93 -17 -103 -2 -4 7 -55 336 -115 731 -59 396 -110 723 -113 726 -11
10 -6 -1265 4 -1293 5 -14 28 -50 51 -80 67 -89 66 -90 -157 -93 -161 -2 -193
0 -204 13 -10 12 -8 21 16 50 16 20 44 54 62 76 l32 41 -2 918 -3 918 -51 58
c-61 71 -67 81 -59 94 4 6 83 10 204 10 164 0 201 -3 211 -15z m1738 -372 c-2
-246 -7 -387 -13 -390 -5 -1 -15 1 -22 5 -6 4 -50 137 -96 296 -57 196 -91
294 -103 303 -11 8 -49 13 -106 13 l-88 0 0 -410 0 -410 36 0 35 0 55 116 c47
101 57 115 76 112 l23 -3 3 -314 c2 -309 -1 -341 -30 -341 -5 0 -36 56 -68
125 l-59 125 -35 0 -36 0 0 -425 0 -425 75 -62 c56 -46 75 -67 73 -82 -3 -20
-9 -21 -243 -24 -132 -1 -250 0 -262 3 -37 9 -27 32 42 100 l65 63 0 923 0
923 -66 67 c-46 46 -65 72 -61 83 6 14 51 16 407 16 l400 0 -2 -387z"/>
</g>
</svg>
